<svg width="40" height="38" viewBox="0 0 40 38" fill="none" xmlns="http://www.w3.org/2000/svg">
<path d="M28.3333 7.33366H35V9.00033H28.3333V7.33366ZM28.3333 14.0003H35V12.3337H28.3333V14.0003ZM28.3333 19.0003H35V17.3337H28.3333V19.0003ZM28.3333 24.0003H35V22.3337H28.3333V24.0003ZM25 15.667C25 21.182 20.515 25.667 15 25.667C9.485 25.667 5 21.182 5 15.667C5 10.152 9.485 5.66699 15 5.66699C20.515 5.66699 25 10.152 25 15.667ZM15 24.0003C16.9967 24.0003 18.8067 23.2653 20.2433 22.0903L14.1667 16.0137V7.41866C9.96667 7.84366 6.66667 11.3587 6.66667 15.667C6.66667 20.262 10.405 24.0003 15 24.0003ZM23.3333 15.667C23.3333 11.357 20.0333 7.84366 15.8333 7.41866V15.322L21.4233 20.912C22.5983 19.4753 23.3333 17.6653 23.3333 15.6687V15.667ZM20.8333 30.667V35.667H30V37.3337H10V35.667H19.1667V30.667H0V4.83366C0 2.53699 1.86833 0.666992 4.16667 0.666992H35.8333C38.1317 0.666992 40 2.53699 40 4.83366V30.667H20.8333ZM1.66667 29.0003H38.3333V4.83366C38.3333 3.45533 37.2117 2.33366 35.8333 2.33366H4.16667C2.78833 2.33366 1.66667 3.45533 1.66667 4.83366V29.0003Z" fill="white"/>
</svg>
