<svg width="40" height="40" viewBox="0 0 40 40" fill="none" xmlns="http://www.w3.org/2000/svg">
<g clip-path="url(#clip0_463_2983)">
<path d="M29.1667 9.82V7.76167C33.7133 10.7667 36.74 15.98 36.6583 21.8267C36.1417 21.7567 35.585 21.7133 34.9967 21.69C34.9967 21.6817 34.9983 21.675 34.9983 21.6667C34.9983 16.8483 32.7083 12.5667 29.1667 9.82ZM5.00167 21.69C5.00167 21.69 5.00167 21.675 5.00167 21.6667C5.00167 16.8483 7.29333 12.5667 10.835 9.82V7.76167C6.28667 10.7683 3.26 15.98 3.34167 21.8267C3.85833 21.7567 4.415 21.7133 5.00167 21.69ZM15.7267 26.6667H13.9783L17.125 16.6667H18.5883L21.6667 26.6667H19.9233L19.41 25H16.25L15.7267 26.6667ZM16.775 23.3333H18.8983L17.8483 19.925L16.775 23.3333ZM25.8333 2.5V12.5C25.8333 14.2267 22.9033 15 20 15C17.0967 15 14.1667 14.2267 14.1667 12.5V2.5C14.1667 0.773333 17.0967 0 20 0C22.9033 0 25.8333 0.773333 25.8333 2.5ZM15.9083 2.5C16.3 2.80833 17.6967 3.33333 20 3.33333C22.3033 3.33333 23.7 2.80833 24.0917 2.5C23.7 2.19167 22.3033 1.66667 20 1.66667C17.6967 1.66667 16.3 2.19167 15.9083 2.5ZM15.8333 7.42C16.05 7.705 17.4767 8.33333 20 8.33333C22.5517 8.33333 23.985 7.69 24.1767 7.41L24.17 4.32C23.0583 4.77667 21.5317 4.99833 20 4.99833C18.4683 4.99833 16.945 4.77667 15.8333 4.32167V7.42ZM24.1883 12.4L24.1817 9.31667C23.0683 9.77667 21.5383 10 20 10C18.4617 10 16.945 9.77833 15.8333 9.32333V12.5C15.9783 12.675 17.42 13.3333 20 13.3333C22.58 13.3333 24.0217 12.675 24.1883 12.4ZM11.6667 27.5V37.5C11.6667 39.2267 8.73667 40 5.83333 40C2.93 40 0 39.2267 0 37.5V27.5C0 25.7733 2.93 25 5.83333 25C8.73667 25 11.6667 25.7733 11.6667 27.5ZM1.74167 27.5C2.13333 27.8083 3.53 28.3333 5.83333 28.3333C8.13667 28.3333 9.53333 27.8083 9.925 27.5C9.53333 27.1917 8.13667 26.6667 5.83333 26.6667C3.53 26.6667 2.13333 27.1917 1.74167 27.5ZM1.66667 32.42C1.88333 32.705 3.31 33.3333 5.83333 33.3333C8.385 33.3333 9.81833 32.69 10.01 32.41L10.0033 29.32C8.89167 29.7767 7.365 29.9983 5.83333 29.9983C4.30167 29.9983 2.77833 29.7767 1.66667 29.3217V32.42ZM10.0217 37.4L10.015 34.3167C8.90167 34.7767 7.37167 35 5.83333 35C4.295 35 2.77833 34.7783 1.66667 34.3233V37.5C1.81167 37.675 3.25333 38.3333 5.83333 38.3333C8.41333 38.3333 9.855 37.675 10.0217 37.4ZM40 27.5V37.5C40 39.2267 37.07 40 34.1667 40C31.2633 40 28.3333 39.2267 28.3333 37.5V27.5C28.3333 25.7733 31.2633 25 34.1667 25C37.07 25 40 25.7733 40 27.5ZM30.075 27.5C30.4667 27.8083 31.8633 28.3333 34.1667 28.3333C36.47 28.3333 37.8667 27.8083 38.2583 27.5C37.8667 27.1917 36.47 26.6667 34.1667 26.6667C31.8633 26.6667 30.4667 27.1917 30.075 27.5ZM30 32.42C30.2167 32.705 31.6433 33.3333 34.1667 33.3333C36.7183 33.3333 38.1517 32.69 38.3433 32.41L38.3367 29.32C37.225 29.7767 35.6983 29.9983 34.1667 29.9983C32.635 29.9983 31.1117 29.7767 30 29.3217V32.42ZM38.355 37.4L38.3483 34.3167C37.235 34.7767 35.705 35 34.1667 35C32.6283 35 31.1117 34.7783 30 34.3233V37.5C30.145 37.675 31.5867 38.3333 34.1667 38.3333C36.7467 38.3333 38.1883 37.675 38.355 37.4ZM23.3333 26.6667H25V16.6667H23.3333V26.6667ZM15 35.7917V37.565C16.58 38.0633 18.2583 38.3333 20 38.3333C21.7417 38.3333 23.42 38.0617 25 37.565V35.7917C23.4333 36.3483 21.755 36.6667 20 36.6667C18.245 36.6667 16.5667 36.3483 15 35.7917Z" fill="white"/>
</g>
<defs>
<clipPath id="clip0_463_2983">
<rect width="40" height="40" fill="white"/>
</clipPath>
</defs>
</svg>
