<svg width="40" height="40" viewBox="0 0 40 40" fill="none" xmlns="http://www.w3.org/2000/svg">
<path d="M16.6667 23.3337V21.667C16.6667 20.747 15.92 20.0004 15 20.0004H11.6667C10.7467 20.0004 10 20.747 10 21.667V23.3337H8.33333V21.667C8.33333 19.8287 9.82833 18.3337 11.6667 18.3337H15C16.8383 18.3337 18.3333 19.8287 18.3333 21.667V23.3337H16.6667ZM18.3333 13.3337C18.3333 11.4954 19.8283 10.0004 21.6667 10.0004C23.505 10.0004 25 11.4954 25 13.3337C25 15.172 23.505 16.667 21.6667 16.667C19.8283 16.667 18.3333 15.172 18.3333 13.3337ZM20 13.3337C20 14.2537 20.7467 15.0004 21.6667 15.0004C22.5867 15.0004 23.3333 14.2537 23.3333 13.3337C23.3333 12.4137 22.5867 11.667 21.6667 11.667C20.7467 11.667 20 12.4137 20 13.3337ZM20.74 18.3337C21.0417 18.8504 21.2767 19.407 21.43 20.0004H23.3333C24.2533 20.0004 25 20.747 25 21.667V23.3337H26.6667V21.667C26.6667 19.8287 25.1717 18.3337 23.3333 18.3337H20.74ZM19.455 8.8037L19.8567 9.10536L21.675 7.6987L23.4867 9.10036L23.9033 8.81036L23.1667 6.57203L25 5.51203V5.0037H22.5967L21.9433 2.5037H21.405L20.75 5.0037H18.3333V5.51536L20.1783 6.54203L19.4533 8.80703L19.455 8.8037ZM2.78833 8.8037L3.19 9.10536L5.00833 7.6987L6.82 9.10036L7.23667 8.81036L6.5 6.57203L8.33333 5.51203V5.0037H5.93L5.27667 2.5037H4.73833L4.08333 5.0037H1.66667V5.51536L3.51167 6.54203L2.78667 8.80703L2.78833 8.8037ZM1.66667 21.667C1.66667 20.747 2.41333 20.0004 3.33333 20.0004H5.23667C5.39 19.407 5.625 18.8504 5.92667 18.3337H3.33333C1.495 18.3337 0 19.8287 0 21.667V23.3337H1.66667V21.667ZM1.66667 13.3337C1.66667 11.4954 3.16167 10.0004 5 10.0004C6.83833 10.0004 8.33333 11.4954 8.33333 13.3337C8.33333 15.172 6.83833 16.667 5 16.667C3.16167 16.667 1.66667 15.172 1.66667 13.3337ZM3.33333 13.3337C3.33333 14.2537 4.08 15.0004 5 15.0004C5.92 15.0004 6.66667 14.2537 6.66667 13.3337C6.66667 12.4137 5.92 11.667 5 11.667C4.08 11.667 3.33333 12.4137 3.33333 13.3337ZM13.3333 16.667C11.495 16.667 10 15.172 10 13.3337C10 11.4954 11.495 10.0004 13.3333 10.0004C15.1717 10.0004 16.6667 11.4954 16.6667 13.3337C16.6667 15.172 15.1717 16.667 13.3333 16.667ZM13.3333 15.0004C14.2533 15.0004 15 14.2537 15 13.3337C15 12.4137 14.2533 11.667 13.3333 11.667C12.4133 11.667 11.6667 12.4137 11.6667 13.3337C11.6667 14.2537 12.4133 15.0004 13.3333 15.0004ZM38.635 21.092C36.995 19.552 34.2017 19.6704 32.7217 21.3687L26.485 28.222C25.965 26.3704 24.2783 25.0004 22.2617 25.0004H4.16667C1.86833 25.0004 0 26.8687 0 29.167V40.0004H1.66667V29.167C1.66667 27.7887 2.78833 26.667 4.16667 26.667H22.2617C23.77 26.667 25 27.8954 25 29.4054C25 30.7587 23.9917 31.9237 22.6617 32.112L13.2267 33.3404L13.4417 34.9937L22.8867 33.7637C24.5783 33.522 25.9317 32.3104 26.44 30.7487L33.955 22.4904C34.8483 21.472 36.525 21.3887 37.5133 22.3237C38.5283 23.2487 38.61 24.8354 37.695 25.862L25.0983 40.0004H27.33L38.94 26.9704C40.46 25.267 40.3217 22.6304 38.635 21.092ZM10.5683 8.08703L11.07 8.4637L13.3433 6.70536L15.6083 8.45703L16.1283 8.0937L15.2083 5.29536L17.5 3.9687V3.33203H14.4967L13.68 0.207031H13.0067L12.1883 3.33203H9.16833V3.97203L11.475 5.25536L10.57 8.08536L10.5683 8.08703Z" fill="white"/>
</svg>
