<svg width="40" height="40" viewBox="0 0 40 40" fill="none" xmlns="http://www.w3.org/2000/svg">
<path d="M26.6153 13.1786L24.027 14.7103C23.562 14.3586 23.052 14.0686 22.5003 13.847V10.8336H17.5003V13.847C16.9486 14.0686 16.4386 14.357 15.9736 14.7103L13.3853 13.1786L10.8403 17.4803L13.4203 19.0086C13.362 19.3553 13.3336 19.6786 13.3336 20.0003C13.3336 20.322 13.362 20.647 13.4203 20.992L10.8403 22.5203L13.3853 26.822L15.9736 25.292C16.4386 25.6436 16.9486 25.9336 17.5003 26.1553V29.1686H22.5003V26.1553C23.052 25.9336 23.562 25.6436 24.027 25.292L26.6153 26.822L29.1603 22.5203L26.5803 20.992C26.6386 20.6453 26.667 20.322 26.667 20.0003C26.667 19.6786 26.6386 19.3536 26.5803 19.0086L29.1603 17.4803L26.6153 13.1786ZM24.6603 18.2286C24.8703 18.7803 25.0003 19.3736 25.0003 20.0003C25.0003 20.6386 24.8686 21.2453 24.6503 21.807L26.8786 23.107L26.0286 24.5403L23.8086 23.202C23.062 24.0903 22.0253 24.7153 20.8336 24.917V27.502H19.167V24.917C17.9803 24.7153 16.947 24.0936 16.2003 23.212L13.972 24.5403L13.122 23.107L15.3436 21.7836C15.1303 21.2286 15.0003 20.632 15.0003 20.002C15.0003 19.3653 15.132 18.762 15.3486 18.202L13.122 16.8986L13.972 15.4653L16.1953 16.7986C16.942 15.9136 17.977 15.2903 19.167 15.0886V12.5036H20.8336V15.0886C22.0253 15.2903 23.062 15.917 23.8103 16.8053L26.0286 15.467L26.8786 16.9003L24.6603 18.2336V18.2286ZM35.0003 15.0003C34.857 15.0003 34.7203 15.0303 34.5803 15.0436L31.2836 9.01695C32.5203 8.10529 33.3336 6.65195 33.3336 5.00195C33.3336 2.24529 31.0903 0.00195312 28.3336 0.00195312C25.862 0.00195312 23.817 1.80862 23.4186 4.16862H16.5836C16.1836 1.80862 14.1403 0.00195312 11.6686 0.00195312C8.91195 0.00195312 6.66862 2.24529 6.66862 5.00195C6.66862 6.65195 7.48195 8.10695 8.71862 9.01695L5.42195 15.0436C5.28029 15.032 5.14529 15.0003 5.00195 15.0003C2.24529 15.0003 0.00195312 17.2436 0.00195312 20.0003C0.00195312 22.757 2.24529 25.0003 5.00195 25.0003C5.14195 25.0003 5.27362 24.9703 5.41029 24.9586L8.71695 30.9853C7.48029 31.897 6.66695 33.3503 6.66695 35.0003C6.66695 37.757 8.91029 40.0003 11.667 40.0003C14.1386 40.0003 16.1836 38.1936 16.582 35.8336H23.417C23.817 38.1936 25.8603 40.0003 28.332 40.0003C31.0886 40.0003 33.332 37.757 33.332 35.0003C33.332 33.337 32.507 31.8703 31.2536 30.9603L34.5886 24.9586C34.727 24.9703 34.8586 25.0003 34.9986 25.0003C37.7553 25.0003 39.9986 22.757 39.9986 20.0003C39.9986 17.2436 37.757 15.0003 35.0003 15.0003ZM28.3336 1.66695C30.172 1.66695 31.667 3.16195 31.667 5.00029C31.667 6.83862 30.172 8.33362 28.3336 8.33362C26.4953 8.33362 25.0003 6.83862 25.0003 5.00029C25.0003 3.16195 26.4953 1.66695 28.3336 1.66695ZM8.33362 5.00029C8.33362 3.16195 9.82862 1.66695 11.667 1.66695C13.5053 1.66695 15.0003 3.16195 15.0003 5.00029C15.0003 6.83862 13.5053 8.33362 11.667 8.33362C9.82862 8.33362 8.33362 6.83862 8.33362 5.00029ZM5.00029 23.3336C3.16195 23.3336 1.66695 21.8386 1.66695 20.0003C1.66695 18.162 3.16195 16.667 5.00029 16.667C6.83862 16.667 8.33362 18.162 8.33362 20.0003C8.33362 21.8386 6.83862 23.3336 5.00029 23.3336ZM11.667 38.3336C9.82862 38.3336 8.33362 36.8386 8.33362 35.0003C8.33362 33.162 9.82862 31.667 11.667 31.667C13.5053 31.667 15.0003 33.162 15.0003 35.0003C15.0003 36.8386 13.5053 38.3336 11.667 38.3336ZM31.667 35.0003C31.667 36.8386 30.172 38.3336 28.3336 38.3336C26.4953 38.3336 25.0003 36.8386 25.0003 35.0003C25.0003 33.162 26.4953 31.667 28.3336 31.667C30.172 31.667 31.667 33.162 31.667 35.0003ZM29.752 30.2303C29.2986 30.0953 28.8303 30.0003 28.3336 30.0003C25.862 30.0003 23.817 31.807 23.4186 34.167H16.5836C16.1836 31.807 14.1403 30.0003 11.6686 30.0003C11.1586 30.0003 10.6753 30.1003 10.212 30.242L7.08029 24.5336C8.80029 23.742 10.0036 22.0136 10.0036 19.9986C10.0036 17.9836 8.80362 16.262 7.08862 15.4686L10.212 9.75695C10.677 9.90029 11.1586 9.99862 11.6686 9.99862C14.1403 9.99862 16.1853 8.19195 16.5836 5.83195H23.4186C23.8186 8.19195 25.862 9.99862 28.3336 9.99862C28.8436 9.99862 29.327 9.89862 29.7903 9.75695L32.9136 15.4686C31.1986 16.262 29.9986 17.9886 29.9986 19.9986C29.9986 22.0086 31.2003 23.737 32.917 24.5303L29.7503 30.2286L29.752 30.2303ZM35.0003 23.3336C33.162 23.3336 31.667 21.8386 31.667 20.0003C31.667 18.162 33.162 16.667 35.0003 16.667C36.8386 16.667 38.3336 18.162 38.3336 20.0003C38.3336 21.8386 36.8386 23.3336 35.0003 23.3336ZM20.0003 16.667C18.162 16.667 16.667 18.162 16.667 20.0003C16.667 21.8386 18.162 23.3336 20.0003 23.3336C21.8386 23.3336 23.3336 21.8386 23.3336 20.0003C23.3336 18.162 21.8386 16.667 20.0003 16.667ZM20.0003 21.667C19.0803 21.667 18.3336 20.9186 18.3336 20.0003C18.3336 19.082 19.0803 18.3336 20.0003 18.3336C20.9203 18.3336 21.667 19.082 21.667 20.0003C21.667 20.9186 20.9203 21.667 20.0003 21.667Z" fill="white"/>
</svg>
