<svg width="24" height="24" viewBox="0 0 24 24" fill="none" xmlns="http://www.w3.org/2000/svg">
<path d="M18.0504 12.5C18.2904 13.916 19.5164 15 20.9994 15C22.6534 15 23.9994 13.654 23.9994 12C23.9994 10.346 22.6534 9 20.9994 9C19.5164 9 18.2894 10.084 18.0504 11.5H14.9994V4.5C14.9994 3.948 15.4474 3.5 15.9994 3.5H18.0504C18.2904 4.916 19.5164 6 20.9994 6C22.6534 6 23.9994 4.654 23.9994 3C23.9994 1.346 22.6534 0 20.9994 0C19.5164 0 18.2894 1.084 18.0504 2.5H15.9994C14.8964 2.5 13.9994 3.397 13.9994 4.5V11.5H11.9994V12.5H13.9994V19.5C13.9994 20.603 14.8964 21.5 15.9994 21.5H18.0504C18.2904 22.916 19.5164 24 20.9994 24C22.6534 24 23.9994 22.654 23.9994 21C23.9994 19.346 22.6534 18 20.9994 18C19.5164 18 18.2894 19.084 18.0504 20.5H15.9994C15.4474 20.5 14.9994 20.052 14.9994 19.5V12.5H18.0504ZM20.9994 10C22.1024 10 22.9994 10.897 22.9994 12C22.9994 13.103 22.1024 14 20.9994 14C19.8964 14 18.9994 13.103 18.9994 12C18.9994 10.897 19.8964 10 20.9994 10ZM20.9994 1C22.1024 1 22.9994 1.897 22.9994 3C22.9994 4.103 22.1024 5 20.9994 5C19.8964 5 18.9994 4.103 18.9994 3C18.9994 1.897 19.8964 1 20.9994 1ZM20.9994 19C22.1024 19 22.9994 19.897 22.9994 21C22.9994 22.103 22.1024 23 20.9994 23C19.8964 23 18.9994 22.103 18.9994 21C18.9994 19.897 19.8964 19 20.9994 19ZM10.4994 12C10.4994 11.726 10.4694 11.449 10.4054 11.149L11.9314 10.253L10.4104 7.666L8.89441 8.558C8.48641 8.218 8.01241 7.952 7.49841 7.772V6.001H4.49841V7.772C3.98341 7.952 3.51041 8.218 3.10241 8.558L1.58641 7.666L0.0664062 10.253L1.59241 11.149C1.52941 11.449 1.49841 11.725 1.49841 12C1.49841 12.275 1.52841 12.551 1.59241 12.851L0.0664062 13.747L1.58741 16.334L3.10341 15.442C3.51141 15.782 3.98541 16.048 4.49941 16.228V17.999H7.49941V16.228C8.01441 16.048 8.48741 15.782 8.89541 15.442L10.4114 16.334L11.9324 13.747L10.4064 12.851C10.4694 12.551 10.5004 12.275 10.5004 12H10.4994ZM10.5624 14.103L10.0554 14.965L8.71941 14.174C8.17741 14.851 7.39641 15.32 6.49841 15.45V17.001H5.49841V15.45C4.60441 15.32 3.82541 14.855 3.28341 14.182L1.94141 14.966L1.43441 14.104L2.76341 13.329C2.59441 12.919 2.49841 12.472 2.49841 12.002C2.49841 11.529 2.59541 11.079 2.76541 10.668L1.43441 9.9L1.94141 9.038L3.28741 9.816C3.82941 9.146 4.60541 8.683 5.49741 8.553V7.002H6.49741V8.553C7.39541 8.683 8.17641 9.152 8.71941 9.829L10.0544 9.037L10.5614 9.899L9.23541 10.684C9.40141 11.091 9.49741 11.535 9.49741 12.001C9.49741 12.467 9.40141 12.912 9.23541 13.319L10.5624 14.103ZM5.99941 10C4.89641 10 3.99941 10.897 3.99941 12C3.99941 13.103 4.89641 14 5.99941 14C7.10241 14 7.99941 13.103 7.99941 12C7.99941 10.897 7.10241 10 5.99941 10ZM5.99941 13C5.44741 13 4.99941 12.552 4.99941 12C4.99941 11.448 5.44741 11 5.99941 11C6.55141 11 6.99941 11.448 6.99941 12C6.99941 12.552 6.55141 13 5.99941 13Z" fill="white"/>
</svg>
