<svg width="40" height="40" viewBox="0 0 40 40" fill="none" xmlns="http://www.w3.org/2000/svg">
<g clip-path="url(#clip0_463_2978)">
<path d="M22.5 5.83333C22.5 5.37333 22.8733 5 23.3333 5H29.1667C32.3833 5 35 7.61667 35 10.8333V16.6667C35 17.1267 34.6267 17.5 34.1667 17.5C33.7067 17.5 33.3333 17.1267 33.3333 16.6667V10.8333C33.3333 8.53667 31.465 6.66667 29.1667 6.66667H23.3333C22.8733 6.66667 22.5 6.29333 22.5 5.83333ZM10 10C8.16167 10 6.66667 8.505 6.66667 6.66667C6.66667 4.82833 8.16167 3.33333 10 3.33333C11.8383 3.33333 13.3333 4.82833 13.3333 6.66667C13.3333 8.505 11.8383 10 10 10ZM10 8.33333C10.92 8.33333 11.6667 7.585 11.6667 6.66667C11.6667 5.74833 10.92 5 10 5C9.08 5 8.33333 5.74833 8.33333 6.66667C8.33333 7.585 9.08 8.33333 10 8.33333ZM33.3333 26.6667C33.3333 28.505 31.8383 30 30 30C28.1617 30 26.6667 28.505 26.6667 26.6667C26.6667 24.8283 28.1617 23.3333 30 23.3333C31.8383 23.3333 33.3333 24.8283 33.3333 26.6667ZM31.6667 26.6667C31.6667 25.7483 30.92 25 30 25C29.08 25 28.3333 25.7483 28.3333 26.6667C28.3333 27.585 29.08 28.3333 30 28.3333C30.92 28.3333 31.6667 27.585 31.6667 26.6667ZM40 30C40 35.515 35.515 40 30 40C24.485 40 20 35.515 20 30C20 24.485 24.485 20 30 20C35.515 20 40 24.485 40 30ZM33.3333 36.6667C33.3333 34.8283 31.8383 33.3333 30 33.3333C28.1617 33.3333 26.6667 34.8283 26.6667 36.6667V37.6233C27.69 38.0733 28.8133 38.3333 30 38.3333C31.1867 38.3333 32.31 38.0733 33.3333 37.6233V36.6667ZM38.3333 30C38.3333 25.405 34.595 21.6667 30 21.6667C25.405 21.6667 21.6667 25.405 21.6667 30C21.6667 32.7133 22.99 35.105 25.0033 36.6267C25.025 33.8883 27.255 31.6667 30 31.6667C32.745 31.6667 34.975 33.8883 34.9967 36.6267C37.01 35.1033 38.3333 32.7133 38.3333 30ZM16.6667 33.3333H10.8333C8.535 33.3333 6.66667 31.4633 6.66667 29.1667V23.3333C6.66667 22.8733 6.29333 22.5 5.83333 22.5C5.37333 22.5 5 22.8733 5 23.3333V29.1667C5 32.3833 7.61667 35 10.8333 35H16.6667C17.1267 35 17.5 34.6267 17.5 34.1667C17.5 33.7067 17.1267 33.3333 16.6667 33.3333ZM10 20C4.485 20 0 15.515 0 10C0 4.485 4.485 0 10 0C15.515 0 20 4.485 20 10C20 15.515 15.515 20 10 20ZM10 11.6667C12.7433 11.6667 14.975 13.8883 14.9967 16.6267C17.01 15.1033 18.3333 12.7133 18.3333 10C18.3333 5.405 14.595 1.66667 10 1.66667C5.405 1.66667 1.66667 5.405 1.66667 10C1.66667 12.7133 2.99 15.105 5.00333 16.6267C5.025 13.8883 7.255 11.6667 10 11.6667ZM6.66667 17.6233C7.69 18.0733 8.81333 18.3333 10 18.3333C11.1867 18.3333 12.31 18.0733 13.3333 17.6233C13.3333 17.5833 13.3333 16.6667 13.3333 16.6667C13.3333 14.8283 11.8383 13.3333 10 13.3333C8.16167 13.3333 6.66667 14.8283 6.66667 16.6667C6.66667 16.6667 6.66667 17.5817 6.66667 17.6233Z" fill="white"/>
</g>
<defs>
<clipPath id="clip0_463_2978">
<rect width="40" height="40" fill="white"/>
</clipPath>
</defs>
</svg>
