<svg width="40" height="40" viewBox="0 0 40 40" fill="none" xmlns="http://www.w3.org/2000/svg">
<g clip-path="url(#clip0_463_2990)">
<path d="M11.6667 23.3333C15.35 23.3333 18.3333 20.35 18.3333 16.6667C18.3333 12.9833 15.35 10 11.6667 10C7.98333 10 5 12.9833 5 16.6667C5 20.35 7.98333 23.3333 11.6667 23.3333ZM11.6667 11.6667C14.4167 11.6667 16.6667 13.9167 16.6667 16.6667C16.6667 19.4167 14.4167 21.6667 11.6667 21.6667C8.91667 21.6667 6.66667 19.4167 6.66667 16.6667C6.66667 13.9167 8.91667 11.6667 11.6667 11.6667ZM23.3333 30.8333V40H21.6667V30.8333C21.6667 29.45 20.55 28.3333 19.1667 28.3333H4.16667C2.78333 28.3333 1.66667 29.45 1.66667 30.8333V40H0V30.8333C0 28.5333 1.86667 26.6667 4.16667 26.6667H19.1667C21.4667 26.6667 23.3333 28.5333 23.3333 30.8333ZM33.3333 11.1833L24.1667 20.35L21.6 17.7833C21.6333 17.4167 21.6667 17.05 21.6667 16.6667C21.6667 16.2333 21.6333 15.8167 21.5833 15.4167L24.1667 18L32.15 10.0167H25V8.35H32.5C33.8833 8.35 35 9.46667 35 10.85V18.35H33.3333V11.1833ZM40 4.16667V30H26.5C26.3833 29.4167 26.2 28.8667 25.95 28.3333H38.3333V4.16667C38.3333 2.78333 37.2167 1.66667 35.8333 1.66667H12.5C11.1167 1.66667 10 2.78333 10 4.16667V6.81667C9.43333 6.91667 8.86667 7.06667 8.33333 7.25V4.16667C8.33333 1.86667 10.2 0 12.5 0H35.8333C38.1333 0 40 1.86667 40 4.16667Z" fill="white"/>
</g>
<defs>
<clipPath id="clip0_463_2990">
<rect width="40" height="40" fill="white"/>
</clipPath>
</defs>
</svg>
