<svg width="40" height="40" viewBox="0 0 40 40" fill="none" xmlns="http://www.w3.org/2000/svg">
<path d="M9.115 24.9997H0V26.6664H6.66667V29.9997H0V31.6664H6.66667V34.9997H0V36.6664H1.66667C1.66667 38.5047 3.16167 39.9997 5 39.9997C6 39.9997 6.88833 39.548 7.5 38.848C8.11167 39.548 9 39.9997 10 39.9997C11.8383 39.9997 13.3333 38.5047 13.3333 36.6664H16.6667V34.1664L14.53 28.6664C13.64 26.4397 11.5133 24.9997 9.115 24.9997ZM8.33333 26.6664H9.115C10.8283 26.6664 12.3467 27.6947 12.9833 29.2847L13.27 29.9997H8.33333V26.6664ZM5 38.333C4.08 38.333 3.33333 37.5847 3.33333 36.6664H6.66667C6.66667 37.5847 5.92 38.333 5 38.333ZM10 38.333C9.08 38.333 8.33333 37.5847 8.33333 36.6664H11.6667C11.6667 37.5847 10.92 38.333 10 38.333ZM15 34.9997H8.33333V31.6664H13.9367L15 34.3264V34.9997ZM31.6667 19.988L37.5583 14.2247C39.1317 12.6514 40 10.558 40 8.33138C40 6.10471 39.1317 4.01305 37.5583 2.43805C35.985 0.863047 33.8917 -0.00195312 31.6667 -0.00195312C29.4417 -0.00195312 27.3467 0.864714 25.775 2.43805C24.2017 4.01138 23.3333 6.10471 23.3333 8.33138C23.3333 10.558 24.2017 12.6497 25.7817 14.2314L31.6667 19.988ZM26.9533 3.61805C28.2117 2.35971 29.8867 1.66638 31.6667 1.66638C33.4467 1.66638 35.12 2.35971 36.38 3.61805C37.64 4.87638 38.3333 6.55138 38.3333 8.33305C38.3333 10.1147 37.64 11.788 36.3867 13.0414L31.6667 17.658L26.9533 13.048C25.6933 11.7897 25 10.1147 25 8.33305C25 6.55138 25.6933 4.87805 26.9533 3.61805ZM40 30.833C40 34.0497 37.3833 36.6664 34.1667 36.6664H20V34.9997H34.1667C36.4633 34.9997 38.3333 33.1297 38.3333 30.833C38.3333 28.5364 36.4633 26.6664 34.1667 26.6664H19.1667C15.95 26.6664 13.3333 24.0497 13.3333 20.833C13.3333 17.6164 15.95 14.9997 19.1667 14.9997H22.105C22.5033 15.568 22.9467 16.1114 23.45 16.6147L23.5017 16.6664H19.165C16.8683 16.6664 14.9983 18.5364 14.9983 20.833C14.9983 23.1297 16.8683 24.9997 19.165 24.9997H34.165C37.3817 24.9997 40 27.6164 40 30.833Z" fill="white"/>
</svg>
