<svg width="40" height="40" viewBox="0 0 40 40" fill="none" xmlns="http://www.w3.org/2000/svg">
<path d="M31.6667 19.988L37.5583 14.2247C39.1333 12.6514 40 10.558 40 8.33138C40 6.10471 39.1333 4.01305 37.5583 2.43805C35.985 0.864714 33.8917 -0.00195312 31.6667 -0.00195312C29.4417 -0.00195312 27.3483 0.864714 25.7733 2.43805C22.5233 5.68805 22.5233 10.9747 25.78 14.2297L31.6667 19.9864V19.988ZM26.9517 3.61805C28.2117 2.35971 29.885 1.66638 31.6667 1.66638C33.4483 1.66638 35.1217 2.35971 36.38 3.61805C37.64 4.87638 38.3333 6.55138 38.3333 8.33305C38.3333 10.1147 37.64 11.788 36.3867 13.0414L31.6667 17.658L26.9517 13.048C24.3517 10.448 24.3517 6.21638 26.9517 3.61805ZM3.33333 33.333C1.495 33.333 0 34.828 0 36.6664C0 38.5047 1.495 39.9997 3.33333 39.9997C5.17167 39.9997 6.66667 38.5047 6.66667 36.6664C6.66667 34.828 5.17167 33.333 3.33333 33.333ZM3.33333 38.333C2.415 38.333 1.66667 37.5847 1.66667 36.6664C1.66667 35.748 2.415 34.9997 3.33333 34.9997C4.25167 34.9997 5 35.748 5 36.6664C5 37.5847 4.25167 38.333 3.33333 38.333ZM17.5 26.6664C17.5 28.5047 18.995 29.9997 20.8333 29.9997C22.6717 29.9997 24.1667 28.5047 24.1667 26.6664C24.1667 24.828 22.6717 23.333 20.8333 23.333C18.995 23.333 17.5 24.828 17.5 26.6664ZM22.5 26.6664C22.5 27.5847 21.7517 28.333 20.8333 28.333C19.915 28.333 19.1667 27.5847 19.1667 26.6664C19.1667 25.748 19.915 24.9997 20.8333 24.9997C21.7517 24.9997 22.5 25.748 22.5 26.6664ZM40 32.4997C40 35.7164 37.3833 38.333 34.1667 38.333H9.79C9.92667 37.7997 10 37.2414 10 36.6664H34.1667C36.4633 36.6664 38.3333 34.7964 38.3333 32.4997C38.3333 30.203 36.4633 28.333 34.1667 28.333H27.29C27.4267 27.7997 27.5 27.2414 27.5 26.6664H34.1667C37.3833 26.6664 40 29.283 40 32.4997ZM14.3767 28.333H9.16667C5.95 28.333 3.33333 25.7164 3.33333 22.4997C3.33333 19.283 5.95 16.6664 9.16667 16.6664H23.5017L25.2067 18.333H9.16667C6.87 18.333 5 20.203 5 22.4997C5 24.7964 6.87 26.6664 9.16667 26.6664H14.1667C14.1667 27.2414 14.24 27.7997 14.3767 28.333Z" fill="white"/>
</svg>
