<svg width="40" height="40" viewBox="0 0 40 40" fill="none" xmlns="http://www.w3.org/2000/svg">
<g clip-path="url(#clip0_463_2957)">
<path d="M39.47 9.94333C39.37 9.98167 39.2683 10 39.1667 10C38.8333 10 38.5183 9.79833 38.39 9.47L35.8 2.83167C29.9017 16.745 18.2167 25.885 1.02667 29.9767C0.961667 29.9933 0.896667 30 0.833333 30C0.456667 30 0.115 29.7433 0.0233333 29.36C-0.0833333 28.9117 0.193333 28.4617 0.641667 28.355C17.395 24.3667 28.7367 15.4683 34.3817 1.91833L27.3933 4.645C26.9683 4.81333 26.4817 4.6 26.315 4.17167C26.1483 3.74333 26.36 3.26 26.7883 3.09333L34.12 0.231667C34.6883 0.01 35.3083 0.02 35.8683 0.266667C36.4283 0.513333 36.86 0.961667 37.0817 1.53167L39.9433 8.865C40.1117 9.29333 39.8983 9.77667 39.47 9.94333ZM35.8333 13.3333C35.3733 13.3333 35 13.7067 35 14.1667V39.1667C35 39.6267 35.3733 40 35.8333 40C36.2933 40 36.6667 39.6267 36.6667 39.1667V14.1667C36.6667 13.7067 36.2933 13.3333 35.8333 13.3333ZM27.5 21.6667C27.04 21.6667 26.6667 22.04 26.6667 22.5V39.1667C26.6667 39.6267 27.04 40 27.5 40C27.96 40 28.3333 39.6267 28.3333 39.1667V22.5C28.3333 22.04 27.96 21.6667 27.5 21.6667ZM10.8333 30C10.3733 30 10 30.3733 10 30.8333V39.1667C10 39.6267 10.3733 40 10.8333 40C11.2933 40 11.6667 39.6267 11.6667 39.1667V30.8333C11.6667 30.3733 11.2933 30 10.8333 30ZM2.5 33.3333C2.04 33.3333 1.66667 33.7067 1.66667 34.1667V39.1667C1.66667 39.6267 2.04 40 2.5 40C2.96 40 3.33333 39.6267 3.33333 39.1667V34.1667C3.33333 33.7067 2.96 33.3333 2.5 33.3333ZM19.1667 26.6667C18.7067 26.6667 18.3333 27.04 18.3333 27.5V39.1667C18.3333 39.6267 18.7067 40 19.1667 40C19.6267 40 20 39.6267 20 39.1667V27.5C20 27.04 19.6267 26.6667 19.1667 26.6667ZM0 10C0 4.485 4.485 0 10 0C15.515 0 20 4.485 20 10C20 15.515 15.515 20 10 20C4.485 20 0 15.515 0 10ZM10 18.3333C11.195 18.3333 12.3267 18.07 13.3567 17.615C13.3517 17.5767 13.3333 17.5417 13.3333 17.5V16.6667C13.3333 14.8283 11.8383 13.3333 10 13.3333C8.16167 13.3333 6.66667 14.8283 6.66667 16.6667V17.5C6.66667 17.54 6.65 17.575 6.64333 17.615C7.67167 18.07 8.80333 18.3333 10 18.3333ZM1.66667 10C1.66667 12.7133 2.99 15.105 5.00333 16.6267C5.025 13.8883 7.255 11.6667 10 11.6667C12.745 11.6667 14.975 13.8883 14.9967 16.6267C17.01 15.1033 18.3333 12.7133 18.3333 10C18.3333 5.405 14.595 1.66667 10 1.66667C5.405 1.66667 1.66667 5.405 1.66667 10ZM6.66667 6.66667C6.66667 4.82833 8.16167 3.33333 10 3.33333C11.8383 3.33333 13.3333 4.82833 13.3333 6.66667C13.3333 8.505 11.8383 10 10 10C8.16167 10 6.66667 8.505 6.66667 6.66667ZM8.33333 6.66667C8.33333 7.58667 9.08167 8.33333 10 8.33333C10.9183 8.33333 11.6667 7.58667 11.6667 6.66667C11.6667 5.74667 10.9183 5 10 5C9.08167 5 8.33333 5.74667 8.33333 6.66667Z" fill="white"/>
</g>
<defs>
<clipPath id="clip0_463_2957">
<rect width="40" height="40" fill="white"/>
</clipPath>
</defs>
</svg>
