<svg width="29" height="29" viewBox="0 0 29 29" fill="none" xmlns="http://www.w3.org/2000/svg">
<path d="M0.380859 21.9471C0.513541 21.6951 0.706126 21.4947 0.905709 21.2963C1.90278 20.3051 2.89314 19.3063 3.89049 18.3168C4.39435 17.8163 5.15013 18.0061 5.32004 18.6678C5.39702 18.9698 5.30773 19.236 5.09611 19.4516C4.00162 20.5528 2.90714 21.6546 1.80117 22.744C1.36226 23.1762 0.723201 23.0458 0.44916 22.4952C0.430685 22.4579 0.443842 22.3994 0.382259 22.3896L0.380859 21.9471Z" fill="white"/>
<path d="M6.61532 28.623C6.6002 28.5513 6.52938 28.567 6.48543 28.5446C5.96702 28.275 5.83322 27.6424 6.24274 27.2253C7.34376 26.1042 8.45411 24.993 9.57379 23.8918C9.90325 23.5668 10.3979 23.5819 10.7181 23.889C11.0448 24.2022 11.0742 24.7136 10.7405 25.0523C9.63173 26.1781 8.50981 27.2917 7.38789 28.4046C7.2958 28.4962 7.16704 28.551 7.05535 28.623H6.61532Z" fill="white"/>
<path d="M0.380859 27.5749C0.512702 27.323 0.704727 27.1226 0.904869 26.9247C1.53805 26.2991 2.16059 25.6625 2.79629 25.0391C3.29483 24.5501 4.03269 24.734 4.21184 25.3834C4.29582 25.6846 4.2138 25.9536 4.00218 26.1672C3.26767 26.9124 2.52757 27.6519 1.78186 28.3859C1.68277 28.4833 1.54757 28.5443 1.42916 28.6221H0.987725C0.646223 28.5592 0.443935 28.3569 0.380859 28.0153V27.5749Z" fill="white"/>
<path d="M24.9504 12.1918C24.9773 12.2108 25.0054 12.2282 25.0344 12.2438C25.952 12.4655 26.0925 12.6256 26.137 13.5888C26.1972 14.8913 25.7989 16.0432 24.8877 16.9781C23.534 18.3676 22.1526 19.7303 20.7774 21.0988C20.4174 21.4568 19.9351 21.4549 19.5712 21.0988C19.0386 20.5787 18.5125 20.0517 17.9927 19.5178C17.8682 19.3899 17.803 19.3879 17.6725 19.5178C17.2747 19.9097 16.8151 19.8935 16.4076 19.5058C16.2298 19.3378 16.0786 19.026 15.8679 19.0394C15.6868 19.0512 15.5216 19.3373 15.3525 19.5055C14.9676 19.8879 14.5816 20.2691 14.2023 20.6568C13.9342 20.9314 13.6257 21.0439 13.2548 20.9149C13.1456 20.8768 13.0838 20.9253 13.0093 20.9826C11.1339 22.4335 8.96812 23.1011 6.63835 23.3102C6.05696 23.3625 5.64156 22.944 5.6939 22.3618C5.90412 20.0323 6.57061 17.8674 8.02479 15.9928C8.09225 15.906 8.11521 15.8358 8.0791 15.7207C7.97021 15.3728 8.0707 15.0769 8.33103 14.8199C8.84888 14.3105 9.35441 13.7887 9.87646 13.2837C10.0111 13.1533 10.0075 13.0777 9.87142 12.9618C9.72696 12.8336 9.58977 12.6975 9.4605 12.554C9.11312 12.1836 9.10696 11.7106 9.47058 11.3517C9.62118 11.2031 9.61278 11.1303 9.46666 10.9898C8.95665 10.4991 8.45895 9.99411 7.96069 9.49222C7.52822 9.05722 7.5285 8.60207 7.96349 8.16652C9.26978 6.85854 10.5769 5.55225 11.8849 4.24764C12.9626 3.17778 14.2567 2.71955 15.7719 2.90654C16.4022 2.98436 16.6251 3.1915 16.7253 3.80984C16.7353 3.87254 16.7516 3.93441 16.7726 4.03126C17.2367 3.58115 17.6887 3.15595 18.1898 2.78869C21.0435 0.695268 24.2119 -0.0347634 27.695 0.598602C28.0976 0.671381 28.3389 0.91995 28.4091 1.33423C29.113 5.42629 28.04 8.98276 25.19 12.0037C25.1296 12.0683 25.0473 12.1162 24.9504 12.1918Z" fill="white"/>
<path d="M7.11104 12.2872C7.10572 12.4731 7.01559 12.6777 6.84652 12.8471C6.03475 13.6588 5.22774 14.4726 4.41121 15.2785C4.049 15.6362 3.5345 15.6348 3.20756 15.2953C2.88593 14.9619 2.89209 14.4647 3.24143 14.1112C4.04797 13.2955 4.8588 12.4843 5.67393 11.6776C5.9393 11.4136 6.25505 11.3375 6.60718 11.4766C6.90782 11.5956 7.10964 11.9074 7.11104 12.2872Z" fill="white"/>
<path d="M17.5964 22.6927C17.5911 22.9505 17.5023 23.1566 17.3335 23.3256C16.5167 24.1438 15.7033 24.9654 14.8789 25.7758C14.5282 26.1209 14.0176 26.1117 13.6951 25.7814C13.3727 25.4511 13.3741 24.9486 13.7217 24.597C14.5342 23.775 15.3518 22.9575 16.1744 22.1447C16.4316 21.8899 16.7465 21.818 17.0855 21.9585C17.4133 22.096 17.5701 22.361 17.5964 22.6927Z" fill="white"/>
<path d="M25.4199 2.02606C25.8092 2.01346 26.1922 2.077 26.5776 2.09072C26.8144 2.0994 26.8934 2.21024 26.9166 2.4381C27.1268 4.50111 26.7817 6.45999 25.84 8.31054C25.3463 9.27744 24.7024 10.16 23.9324 10.9253C21.6969 13.1622 19.4621 15.3994 17.2277 17.6369C17.0976 17.7676 17.0301 17.7881 16.8893 17.6461C15.0547 15.8017 13.2149 13.9625 11.3699 12.1286C11.2159 11.9758 11.2389 11.9086 11.3777 11.7703C13.6045 9.55114 15.8283 7.32942 18.049 5.10518C20.086 3.07436 22.5535 2.06832 25.4199 2.02606Z" fill="#FEC631"/>
<path d="M15.1203 4.69849C15.0456 5.39493 14.8124 5.97828 14.3536 6.44519C13.2199 7.59734 12.0714 8.73521 10.9321 9.88232C10.8426 9.97274 10.7888 9.98897 10.6925 9.88876C10.3807 9.56442 10.0625 9.24616 9.73799 8.93395C9.6417 8.84186 9.67249 8.79567 9.74863 8.72009C10.9081 7.56738 12.0605 6.4074 13.2264 5.2614C13.6798 4.81521 14.2537 4.60499 14.8779 4.52214C15.0629 4.49778 15.1715 4.52689 15.1203 4.69849Z" fill="#FEC631"/>
<path d="M24.4841 14.042C24.4282 14.6777 24.237 15.2583 23.8034 15.7056C22.6398 16.9059 21.4493 18.0796 20.2736 19.2678C20.1801 19.3622 20.1336 19.332 20.0592 19.2544C19.7513 18.9389 19.4433 18.6238 19.1226 18.3206C19.0084 18.2123 19.0386 18.1563 19.1332 18.0614C20.2666 16.9347 21.3913 15.7991 22.5289 14.6766C23.0162 14.196 23.6178 13.9446 24.3011 13.8886C24.4301 13.878 24.5259 13.89 24.4841 14.042Z" fill="#FEC631"/>
<path d="M7.46094 21.5315C7.73582 19.944 8.24163 18.4803 9.18608 17.1893C9.29805 17.0368 9.34984 17.1238 9.42933 17.2033C10.2131 17.9899 10.9969 18.7782 11.7879 19.5577C11.9201 19.6879 11.9173 19.7478 11.7664 19.8556C10.8231 20.5305 9.77895 20.982 8.66459 21.2812C8.27942 21.3848 7.89089 21.4875 7.46094 21.5315Z" fill="#FEC631"/>
<path d="M13.5432 18.9779C12.3978 17.8319 11.2641 16.6945 10.1262 15.5631C10.0302 15.4677 10.0669 15.4231 10.1408 15.352C10.4548 15.0441 10.7697 14.7362 11.0737 14.4163C11.1801 14.3043 11.2372 14.3278 11.3343 14.4255C12.4137 15.5123 13.4974 16.596 14.5853 17.6765C14.6917 17.782 14.6844 17.8377 14.5823 17.9368C14.2335 18.2755 13.8945 18.6243 13.5432 18.9779Z" fill="#FEC631"/>
<path d="M24.2149 7.26065C24.2154 7.58652 24.1517 7.9093 24.0275 8.21056C23.9032 8.51182 23.7209 8.78566 23.4908 9.01644C23.2607 9.24721 22.9874 9.43042 22.6866 9.55558C22.3857 9.68075 22.0631 9.74542 21.7372 9.74592C21.4113 9.74642 21.0886 9.68272 20.7873 9.55847C20.4861 9.43423 20.2122 9.25186 19.9814 9.02178C19.7507 8.7917 19.5675 8.51842 19.4423 8.21755C19.3171 7.91667 19.2524 7.59408 19.252 7.26821C19.252 5.9092 20.3593 4.79652 21.7152 4.79008C23.0899 4.78252 24.2105 5.88904 24.2149 7.26065Z" fill="white"/>
<path d="M21.7267 6.44437C21.8904 6.44287 22.0508 6.49004 22.1877 6.5799C22.3245 6.66975 22.4315 6.79823 22.4952 6.94903C22.5589 7.09983 22.5763 7.26615 22.5453 7.42688C22.5143 7.58762 22.4362 7.73551 22.321 7.85179C22.2058 7.96807 22.0586 8.0475 21.8982 8.07999C21.7378 8.11248 21.5713 8.09657 21.4199 8.03427C21.2685 7.97198 21.1391 7.86612 21.048 7.73011C20.9569 7.59411 20.9082 7.43411 20.9082 7.27041C20.909 7.05288 20.9952 6.84437 21.1484 6.68985C21.3015 6.53532 21.5092 6.44716 21.7267 6.44437Z" fill="#FEC631"/>
</svg>
