<svg width="40" height="40" viewBox="0 0 40 40" fill="none" xmlns="http://www.w3.org/2000/svg">
<g clip-path="url(#clip0_463_2945)">
<path d="M19.7523 17.26L14.149 22.7683C13.7723 23.145 13.2773 23.3333 12.7807 23.3333C12.284 23.3333 11.784 23.1433 11.404 22.7633L8.57065 19.8617C8.24898 19.5333 8.25565 19.005 8.58565 18.6833C8.91565 18.3633 9.44398 18.3683 9.76398 18.6983L12.589 21.5917C12.674 21.675 12.8823 21.6767 12.974 21.585L18.5823 16.0717C18.9107 15.7483 19.4373 15.7533 19.7607 16.0817C20.084 16.41 20.0807 16.9383 19.7523 17.26ZM29.1673 30H17.5007C17.0407 30 16.6673 30.3733 16.6673 30.8333C16.6673 31.2933 17.0407 31.6667 17.5007 31.6667H29.1673C29.6273 31.6667 30.0007 31.2933 30.0007 30.8333C30.0007 30.3733 29.6273 30 29.1673 30ZM29.1673 8.33333H17.5007C17.0407 8.33333 16.6673 8.70667 16.6673 9.16667C16.6673 9.62667 17.0407 10 17.5007 10H29.1673C29.6273 10 30.0007 9.62667 30.0007 9.16667C30.0007 8.70667 29.6273 8.33333 29.1673 8.33333ZM29.1673 19.1667H22.5007C22.0407 19.1667 21.6673 19.54 21.6673 20C21.6673 20.46 22.0407 20.8333 22.5007 20.8333H29.1673C29.6273 20.8333 30.0007 20.46 30.0007 20C30.0007 19.54 29.6273 19.1667 29.1673 19.1667ZM11.6673 29.1667C10.7473 29.1667 10.0007 29.9133 10.0007 30.8333C10.0007 31.7533 10.7473 32.5 11.6673 32.5C12.5873 32.5 13.334 31.7533 13.334 30.8333C13.334 29.9133 12.5873 29.1667 11.6673 29.1667ZM11.6673 10.8333C12.5873 10.8333 13.334 10.0867 13.334 9.16667C13.334 8.24667 12.5873 7.5 11.6673 7.5C10.7473 7.5 10.0007 8.24667 10.0007 9.16667C10.0007 10.0867 10.7473 10.8333 11.6673 10.8333ZM36.6673 7.5V32.5C36.6673 36.635 33.3023 40 29.1673 40H10.834C6.69898 40 3.33398 36.635 3.33398 32.5V7.5C3.33398 3.365 6.69898 0 10.834 0H29.1673C33.3023 0 36.6673 3.365 36.6673 7.5ZM35.0007 7.5C35.0007 4.28333 32.384 1.66667 29.1673 1.66667H10.834C7.61732 1.66667 5.00065 4.28333 5.00065 7.5V32.5C5.00065 35.7167 7.61732 38.3333 10.834 38.3333H29.1673C32.384 38.3333 35.0007 35.7167 35.0007 32.5V7.5Z" fill="white"/>
</g>
<defs>
<clipPath id="clip0_463_2945">
<rect width="40" height="40" fill="white"/>
</clipPath>
</defs>
</svg>
