<svg width="40" height="40" viewBox="0 0 40 40" fill="none" xmlns="http://www.w3.org/2000/svg">
<path d="M1.66737 24.225L3.33404 22.5583V40H1.66737V24.225ZM8.28737 17.605L8.33404 40.0017L10.0007 39.9983L9.9507 15.9417L8.28737 17.605ZM15.834 10.06L14.9507 10.9433L15.0007 40.0017L16.6674 39.9983L16.6174 10.8433L15.834 10.06ZM37.5007 0H28.334V1.66667H37.1557L25.834 12.9883L15.834 2.98833L0.0957031 18.7267L1.27404 19.905L15.834 5.345L25.834 15.345L38.334 2.845V11.6667H40.0007V2.5C40.0007 1.12167 38.879 0 37.5007 0ZM40.0007 30C40.0007 35.515 35.5157 40 30.0007 40C24.4857 40 20.0007 35.515 20.0007 30C20.0007 24.485 24.4857 20 30.0007 20C35.5157 20 40.0007 24.485 40.0007 30ZM38.334 30C38.334 25.405 34.5957 21.6667 30.0007 21.6667C25.4057 21.6667 21.6674 25.405 21.6674 30C21.6674 34.595 25.4057 38.3333 30.0007 38.3333C34.5957 38.3333 38.334 34.595 38.334 30ZM28.5374 26.6667H31.4874C31.6574 26.6667 32.5007 26.7067 32.5007 27.5H34.1674C34.1674 26.0517 33.039 25 31.4874 25H30.834V23.3333H29.1674V25H28.5374C27.0457 25 25.834 26.2133 25.834 27.7033C25.834 28.9183 26.6524 29.99 27.8674 30.32L31.6774 31.1517C32.1624 31.28 32.5007 31.7217 32.5007 32.2233C32.5007 32.835 32.0024 33.3333 31.3907 33.3333H28.6107C28.3507 33.3333 27.5007 33.2733 27.5007 32.5H25.834C25.834 33.9717 26.9774 35 28.6107 35H29.1674V36.6667H30.834V35H31.3907C32.9224 35 34.1674 33.755 34.1674 32.2233C34.1674 30.97 33.3207 29.8667 32.0707 29.5333L28.264 28.7033C27.814 28.58 27.5007 28.17 27.5007 27.7033C27.5007 27.1317 27.9657 26.6667 28.5374 26.6667Z" fill="white"/>
</svg>
